<svg width="41" height="41" viewBox="0 0 41 41" fill="none" xmlns="http://www.w3.org/2000/svg">
<path opacity="0.6" d="M20.3125 0C16.2951 0 12.3679 1.19131 9.02749 3.42327C5.68712 5.65524 3.08361 8.82762 1.54621 12.5392C0.00880109 16.2509 -0.393454 20.335 0.390308 24.2753C1.17407 28.2155 3.10865 31.8349 5.9494 34.6756C8.79016 37.5164 12.4095 39.4509 16.3497 40.2347C20.29 41.0185 24.3741 40.6162 28.0858 39.0788C31.7974 37.5414 34.9698 34.9379 37.2017 31.5975C39.4337 28.2571 40.625 24.3299 40.625 20.3125C40.6193 14.927 38.4774 9.76377 34.6693 5.95567C30.8612 2.14757 25.698 0.00568715 20.3125 0ZM20.3125 37.5C16.9131 37.5 13.5901 36.492 10.7636 34.6034C7.93718 32.7148 5.73421 30.0305 4.43333 26.8899C3.13245 23.7493 2.79208 20.2934 3.45526 16.9594C4.11845 13.6253 5.7554 10.5628 8.15911 8.1591C10.5628 5.75539 13.6253 4.11844 16.9594 3.45525C20.2934 2.79207 23.7493 3.13244 26.8899 4.43332C30.0305 5.7342 32.7148 7.93717 34.6034 10.7636C36.492 13.5901 37.5 16.9131 37.5 20.3125C37.4948 24.8693 35.6824 29.238 32.4602 32.4602C29.238 35.6824 24.8693 37.4948 20.3125 37.5ZM29.2305 19.207C29.3758 19.3521 29.491 19.5245 29.5696 19.7142C29.6483 19.9038 29.6887 20.1072 29.6887 20.3125C29.6887 20.5178 29.6483 20.7212 29.5696 20.9108C29.491 21.1005 29.3758 21.2729 29.2305 21.418L22.9805 27.668C22.6873 27.9612 22.2896 28.1259 21.875 28.1259C21.4604 28.1259 21.0627 27.9612 20.7695 27.668C20.4764 27.3748 20.3116 26.9771 20.3116 26.5625C20.3116 26.1479 20.4764 25.7502 20.7695 25.457L24.3535 21.875H12.5C12.0856 21.875 11.6882 21.7104 11.3952 21.4174C11.1021 21.1243 10.9375 20.7269 10.9375 20.3125C10.9375 19.8981 11.1021 19.5007 11.3952 19.2076C11.6882 18.9146 12.0856 18.75 12.5 18.75H24.3535L20.7695 15.168C20.4764 14.8748 20.3116 14.4771 20.3116 14.0625C20.3116 13.6479 20.4764 13.2502 20.7695 12.957C21.0627 12.6638 21.4604 12.4991 21.875 12.4991C22.2896 12.4991 22.6873 12.6638 22.9805 12.957L29.2305 19.207Z" fill="#383535"/>
</svg>
