<svg width="100" height="100" viewBox="0 0 100 100" fill="none" xmlns="http://www.w3.org/2000/svg">
<path d="M69.0427 33.2324L40.8105 61.4648L28.457 49.1162C28.4451 49.1043 28.4332 49.0924 28.421 49.0805C27.435 48.1143 25.8524 48.1302 24.8862 49.1162C23.9197 50.1025 23.9359 51.6852 24.9219 52.6514L39.043 66.7676C39.5111 67.2372 40.1474 67.5009 40.8105 67.5C41.4737 67.5006 42.1097 67.2372 42.5778 66.7676L72.5778 36.7676C72.5897 36.7557 72.6016 36.7441 72.6135 36.7319C73.5797 35.7458 73.5638 34.1632 72.5778 33.197C71.5918 32.2305 70.0092 32.2467 69.0427 33.2324ZM50 0C22.3859 0 0 22.3859 0 50C0 77.6141 22.3859 100 50 100C77.6007 99.9677 99.9677 77.6007 100 50C100 22.3859 77.6141 0 50 0ZM50 95C25.1471 95 5 74.8529 5 50C5 25.1471 25.1471 5 50 5C74.8416 5.02716 94.9728 25.1584 95 50C95 74.8529 74.8529 95 50 95Z" fill="#34A853"/>
</svg>
