<svg width="30" height="35" viewBox="0 0 30 35" fill="none" xmlns="http://www.w3.org/2000/svg">
<path d="M29.7943 27.001C29.7022 27.1658 29.5806 27.3094 29.4365 27.4238C29.2923 27.5381 29.1285 27.6208 28.9545 27.6672C28.7804 27.7136 28.5995 27.7228 28.4221 27.6942C28.2447 27.6656 28.0743 27.5998 27.9208 27.5005L16.3626 20.0758V33.5417C16.3626 33.9284 16.219 34.2994 15.9635 34.5729C15.708 34.8464 15.3614 35 15 35C14.6386 35 14.292 34.8464 14.0365 34.5729C13.781 34.2994 13.6374 33.9284 13.6374 33.5417V20.0758L2.07584 27.5005C1.92234 27.6014 1.75167 27.6688 1.57369 27.6987C1.39572 27.7285 1.21397 27.7203 1.03897 27.6745C0.863977 27.6288 0.699201 27.5463 0.554181 27.4319C0.409161 27.3175 0.286774 27.1735 0.194103 27.0081C0.101433 26.8428 0.0403169 26.6594 0.0142924 26.4686C-0.0117322 26.2778 -0.00214842 26.0834 0.0424882 25.8966C0.0871248 25.7098 0.165928 25.5343 0.27434 25.3803C0.382751 25.2264 0.518618 25.0969 0.674079 24.9995L12.3515 17.5L0.674079 10.0005C0.518618 9.90309 0.382751 9.77364 0.27434 9.61965C0.165928 9.46566 0.0871248 9.29019 0.0424882 9.10339C-0.00214842 8.91659 -0.0117322 8.72218 0.0142924 8.53139C0.0403169 8.3406 0.101433 8.15723 0.194103 7.99188C0.286774 7.82654 0.409161 7.68251 0.554181 7.56811C0.699201 7.45372 0.863977 7.37124 1.03897 7.32545C1.21397 7.27966 1.39572 7.27146 1.57369 7.30133C1.75167 7.3312 1.92234 7.39855 2.07584 7.49948L13.6374 14.9242V1.45833C13.6374 1.07156 13.781 0.700627 14.0365 0.427136C14.292 0.153646 14.6386 0 15 0C15.3614 0 15.708 0.153646 15.9635 0.427136C16.219 0.700627 16.3626 1.07156 16.3626 1.45833V14.9242L27.9242 7.49948C28.0777 7.39855 28.2483 7.3312 28.4263 7.30133C28.6043 7.27146 28.786 7.27966 28.961 7.32545C29.136 7.37124 29.3008 7.45372 29.4458 7.56811C29.5908 7.68251 29.7132 7.82654 29.8059 7.99188C29.8986 8.15723 29.9597 8.3406 29.9857 8.53139C30.0117 8.72218 30.0022 8.91659 29.9575 9.10339C29.9129 9.29019 29.8341 9.46566 29.7257 9.61965C29.6172 9.77364 29.4814 9.90309 29.3259 10.0005L17.6485 17.5L29.3259 24.9995C29.4795 25.0979 29.6135 25.2278 29.7202 25.3817C29.8269 25.5356 29.9042 25.7105 29.9477 25.8964C29.9912 26.0823 30 26.2755 29.9737 26.465C29.9474 26.6546 29.8864 26.8367 29.7943 27.001Z" fill="black"/>
</svg>
